<?xml version="1.0" encoding="UTF-8"?>
<svg id="castelllo" xmlns="http://www.w3.org/2000/svg" version="1.1" viewBox="0 0 967.79 140.45" role="img" aria-label="CASTElllO ao cubo">
  <defs>
    <style>
      .st0 { fill: #9be187; }
      .st1 { fill: #5fa8ff; }
      .st2 { fill: #f85255; }
      .st3 { fill: #fdf6e6; }
    </style>
  </defs>
  <path class="st3" d="M71.25,0c19.11,0,36.22,7.36,50.15,21.49l-21.69,23.88c-8.76-8.76-17.51-12.74-28.46-12.74-19.7,0-34.43,16.12-34.43,37.61s14.93,37.42,34.43,37.42c11.14,0,19.7-4.18,30.05-14.53l22.09,23.88c-15.52,15.92-32.04,23.28-52.14,23.28C30.65,140.31,0,110.26,0,70.25S30.65,0,71.25,0Z"/>
  <path class="st3" d="M224.89,117.02h-54.33l-7.96,21.3h-35.23L181.1,1.99h35.23l53.74,136.33h-37.22l-7.96-21.3ZM213.34,86.37l-15.52-41.99-15.72,41.99h31.25Z"/>
  <path class="st3" d="M339.32,56.12c29.45,9.95,40,20.9,40,41.2,0,24.28-22.09,42.99-50.75,42.99-19.9,0-39.41-7.56-53.14-20.7l18.91-23.68c9.95,9.16,21.3,13.73,34.23,13.73,9.75,0,15.52-3.98,15.52-10.75,0-5.37-4.98-8.36-25.08-15.13-29.46-9.95-40-21.1-40-42.19,0-23.68,20.9-41.59,48.16-41.59,17.31,0,34.43,6.96,47.17,19.11l-20.1,23.68c-8.96-8.36-17.31-12.14-26.67-12.14-8.16,0-13.33,3.58-13.33,9.35s5.57,9.55,25.08,16.12Z"/>
  <path class="st3" d="M426.88,33.63h-38.41V1.99h112.65v31.64h-38.41v104.69h-35.82V33.63Z"/>
  <path class="st3" d="M519.02,1.99h89.16v31.64h-53.34v19.9h47.37v31.64h-47.37v21.49h53.34v31.64h-89.16V1.99Z"/>
  <path class="st2" d="M626.12,1.99h35.82v136.33h-35.82V1.99Z"/>
  <path class="st0" d="M679.92,1.99h35.82v136.33h-35.82V1.99Z"/>
  <path class="st1" d="M733.78,2.13h35.82v136.33h-35.82V2.13Z"/>
  <path class="st3" d="M922.79,70.2c0,40-30.45,70.25-71.05,70.25s-71.05-30.25-71.05-70.25S811.34.14,851.74.14s71.05,30.25,71.05,70.05ZM817.51,70.2c0,21.49,14.53,37.61,34.23,37.61s34.23-16.12,34.23-37.61-14.73-37.42-34.23-37.42-34.23,16.12-34.23,37.42Z"/>
  <path class="st3" d="M944.27,18.67h3.49c2.49,0,3.86-1,3.86-2.86,0-1.74-1.49-2.74-3.73-2.74-2.12,0-4.98,1.24-7.34,3.86l-8.09-8.09c3.86-5.1,10.45-8.21,16.68-8.21,9.58,0,16.55,4.86,16.55,13.19,0,3.98-1.74,7.22-4.73,9.58,4.36,2.24,6.85,5.6,6.85,10.21,0,8.96-7.47,14.19-17.92,14.19-6.97,0-13.07-2.24-17.67-6.35l7.1-10.46c4.23,2.86,7.47,3.98,10.33,3.98,2.24,0,3.98-1.12,3.98-2.86,0-2.24-1.87-2.99-5.48-2.99h-3.86v-10.46Z"/>
</svg>
